<svg xmlns="http://www.w3.org/2000/svg" fill="none" viewBox="0 0 16 16"><path fill="#666" fill-rule="evenodd" d="M10.27 14.1a6.5 6.5 0 0 0 3.67-3.45q-1.24.21-2.7.34-.31 1.83-.97 3.1M8 16A8 8 0 1 0 8 0a8 8 0 0 0 0 16m.48-1.52a7 7 0 0 1-.96 0H7.5a4 4 0 0 1-.84-1.32q-.67-.98-.84-2.08h3.18q.17 1.1.84 2.08A4 4 0 0 1 8.48 14.5M4.75 3.79c.54.9.84 1.93.84 3.05 0 1.12-.3 2.15-.84 3.05A6.5 6.5 0 0 1 2.92 8c0-1.54.53-2.95 1.83-4.21m9.5 0A6.5 6.5 0 0 0 13.08 8c0 1.54-.53 2.95-1.83 4.21-.54-.9-.84-1.93-.84-3.05 0-1.12.3-2.15.84-3.05M8 1.5c.97 0 1.86.28 2.62.76-.3.98-.76 1.86-1.32 2.62A6.5 6.5 0 0 0 8 1.5" clip-rule="evenodd"/></svg>
